#!OML:ASF E:\emotionWalksFemale\Project 1\Capture day 1\Session 1\Female1.ASF
:FULLY-SPECIFIED
:DEGREES
438
root 9.73055 15.5657 0.3684 -399.578 -88.0441 38.3048
lowerback 8.06826 1.25323 -0.0345669
upperback -4.28592 1.61367 -0.483193
thorax -9.06781 0.758545 -0.746515
lowerneck -8.26034 -4.94438 -9.65172
upperneck 14.1865 -6.51569 6.70514
head 6.19263 -3.24582 3.18078
rclavicle 9.06334e-015 2.28602e-015
rhumerus -50.4334 16.1693 -97.8842
rradius 35.4118
rwrist 19.8134
rhand -2.17277 -51.3921
rfingers 7.12502
rthumb 23.5077 -439.976
lclavicle 9.06334e-015 2.28602e-015
lhumerus -48.1941 1.66117 84.7
lradius 40.5236
lwrist -4.84597
lhand -5.22253 -28.1767
lfingers 7.12502
lthumb 20.5796 0.752472
rfemur 4.08902 22.3655 30.5588
rtibia 15.1355
rfoot -16.3919 -28.1115
rtoes 0.33347
lfemur -2.4249 -22.3016 -26.8135
ltibia 23.6452
lfoot -20.3849 25.5399
ltoes -20.9731
439
root 9.73601 15.5631 0.365266 -398.618 -87.971 37.284
lowerback 8.16544 1.25141 -0.116436
upperback -4.26374 1.60547 -0.441434
thorax -9.10451 0.761057 -0.657145
lowerneck -8.27734 -4.98341 -9.82806
upperneck 14.1674 -6.54114 6.71375
head 6.19846 -3.26564 3.20942
rclavicle 1.24613e-014 -1.73937e-016
rhumerus -50.5896 16.3942 -97.921
rradius 35.3589
rwrist 19.8234
rhand -2.33726 -50.9525
rfingers 7.12502
rthumb 23.3499 -439.556
lclavicle 1.24613e-014 -1.73937e-016
lhumerus -48.5094 1.37879 85.1563
lradius 40.5728
lwrist -4.7735
lhand -5.35962 -28.5737
lfingers 7.12502
lthumb 20.4479 0.369651
rfemur 4.08473 22.566 30.6317
rtibia 15.2946
rfoot -16.3644 -28.4489
rtoes -0.0209447
lfemur -2.40956 -21.9585 -26.7774
ltibia 23.5673
lfoot -19.8415 25.5259
ltoes -23.4756
440
root 9.73758 15.5605 0.366284 -398.813 -87.9503 37.3734
lowerback 8.21959 1.22897 -0.203605
upperback -4.20585 1.57121 -0.37911
thorax -9.07773 0.752531 -0.537045
lowerneck -8.38179 -4.9626 -9.7527
upperneck 14.2041 -6.4796 6.50133
head 6.21375 -3.24449 3.13226
rclavicle 2.85815e-014 4.12478e-015
rhumerus -50.7913 16.7706 -98.0337
rradius 35.3768
rwrist 19.7695
rhand -2.75157 -50.8008
rfingers 7.12502
rthumb 22.9524 -439.454
lclavicle 2.85815e-014 4.12478e-015
lhumerus -48.8583 1.12741 85.6523
lradius 40.6788
lwrist -4.54806
lhand -5.47246 -28.7646
lfingers 7.12502
lthumb 20.3394 0.190316
rfemur 4.21806 22.6741 30.6811
rtibia 15.2711
rfoot -15.9534 -28.687
rtoes -1.56963
lfemur -2.34834 -21.7262 -26.8235
ltibia 23.5947
lfoot -19.4907 25.6503
ltoes -25.0715
441
root 9.74306 15.5637 0.365353 -398.137 -87.9285 36.6706
lowerback 8.24955 1.19429 -0.301345
upperback -4.17534 1.52242 -0.273675
thorax -9.06798 0.738778 -0.362759
lowerneck -8.49663 -4.92976 -9.87761
upperneck 14.226 -6.39413 6.4392
head 6.23586 -3.21115 3.13799
rclavicle -1.08089e-014 -3.18055e-015
rhumerus -50.9533 17.1353 -98.0839
rradius 35.377
rwrist 19.7477
rhand -3.3163 -51.2841
rfingers 7.12502
rthumb 22.4104 -440.004
lclavicle -1.08089e-014 -3.18055e-015
lhumerus -49.2452 0.75329 86.2957
lradius 40.8279
lwrist -4.05931
lhand -5.34073 -29.0121
lfingers 7.12502
lthumb 20.466 -0.0707446
rfemur 4.32518 22.7389 30.6964
rtibia 15.0944
rfoot -15.6826 -28.7073
rtoes -2.31123
lfemur -2.37243 -21.9199 -26.832
ltibia 23.7114
lfoot -19.8191 25.564
ltoes -23.5795
442
root 9.74977 15.5676 0.360614 -393.01 -87.8716 31.5982
lowerback 8.20529 1.15603 -0.287333
upperback -4.16683 1.48317 -0.15538
thorax -9.03557 0.723266 -0.237686
lowerneck -8.41121 -4.92927 -9.95274
upperneck 14.04 -6.35902 6.31574
head 6.15851 -3.20552 3.11557
rclavicle -2.21272e-014 -1.09332e-015
rhumerus -50.8891 17.0234 -97.8989
rradius 35.1781
rwrist 19.9853
rhand -3.94675 -51.5808
rfingers 7.12502
rthumb 21.8051 -440.372
lclavicle -2.21272e-014 -1.09332e-015
lhumerus -49.6299 0.388465 86.9121
lradius 40.9843
lwrist -3.93554
lhand -5.19781 -29.4602
lfingers 7.12502
lthumb 20.6033 -0.533677
rfemur 4.38545 22.9745 30.8687
rtibia 14.8718
rfoot -15.6705 -28.9488
rtoes -1.99543
lfemur -2.55391 -22.0505 -26.6082
ltibia 23.852
lfoot -20.3262 25.1362
ltoes -21.279
443
root 9.75124 15.5707 0.358713 -386.081 -87.7877 24.7454
lowerback 8.06429 1.11567 -0.132057
upperback -4.15531 1.4559 -0.0587719
thorax -8.93853 0.704486 -0.214788
lowerneck -8.26717 -4.94528 -9.75416
upperneck 13.7928 -6.34657 5.91847
head 6.0363 -3.21611 2.9605
rclavicle 5.09386e-015 -4.37326e-015
rhumerus -50.7919 16.6704 -97.5994
rradius 35.0045
rwrist 20.3551
rhand -4.23169 -51.0861
rfingers 7.12502
rthumb 21.5315 -439.909
lclavicle 5.09386e-015 -4.37326e-015
lhumerus -49.994 0.03454 87.5077
lradius 41.1371
lwrist -3.95599
lhand -5.13996 -29.887
lfingers 7.12502
lthumb 20.6589 -0.966511
rfemur 4.40966 23.0384 31.0776
rtibia 14.6589
rfoot -15.5964 -29.1547
rtoes -1.79191
lfemur -2.76392 -22.0317 -26.2966
ltibia 23.9863
lfoot -20.7699 24.6125
ltoes -19.1264
444
root 9.75519 15.5726 0.361712 -383.318 -87.6534 22.0751
lowerback 7.96455 1.10132 0.0594163
upperback -4.15594 1.45717 -0.0812335
thorax -8.87492 0.693181 -0.344105
lowerneck -8.25531 -4.96609 -9.558
upperneck 13.6657 -6.35596 5.66069
head 5.98069 -3.22655 2.84617
rclavicle -2.03133e-014 -3.67752e-015
rhumerus -50.7384 16.2729 -97.3462
rradius 34.944
rwrist 20.6343
rhand -4.12227 -50.3867
rfingers 7.12502
rthumb 21.6365 -439.198
lclavicle -2.03133e-014 -3.67752e-015
lhumerus -50.2997 -0.588037 88.1442
lradius 41.2232
lwrist -3.88997
lhand -4.76369 -30.2699
lfingers 7.12502
lthumb 21.0205 -1.38915
rfemur 4.37183 22.8349 31.0395
rtibia 14.4445
rfoot -15.3513 -29.0984
rtoes -2.13551
lfemur -2.97307 -22.0806 -26.1861
ltibia 24.1209
lfoot -21.0039 24.3308
ltoes -18.0151
445
root 9.76431 15.5717 0.366992 -383.484 -87.5096 22.2776
lowerback 7.9999 1.08035 0.22635
upperback -4.15449 1.44203 -0.164643
thorax -8.88771 0.673044 -0.52466
lowerneck -8.34785 -4.9562 -9.47446
upperneck 13.6581 -6.33888 5.63114
head 5.98903 -3.21379 2.82286
rclavicle -1.76173e-014 -4.77083e-015
rhumerus -50.7605 16.0554 -97.2711
rradius 34.9413
rwrist 20.6728
rhand -4.26218 -50.152
rfingers 7.12502
rthumb 21.5022 -438.978
lclavicle -1.76173e-014 -4.77083e-015
lhumerus -50.6315 -1.14063 88.6477
lradius 41.3403
lwrist -3.89564
lhand -4.02174 -30.7691
lfingers 7.12502
lthumb 21.7331 -1.96916
rfemur 4.3613 22.6309 30.8958
rtibia 14.2822
rfoot -15.1659 -29.0193
rtoes -2.62475
lfemur -3.10535 -22.1912 -26.2461
ltibia 24.2174
lfoot -20.9333 24.325
ltoes -18.217
446
root 9.77004 15.5704 0.366512 -382.429 -87.4486 21.1533
lowerback 8.11475 1.02077 0.254302
upperback -4.14283 1.37148 -0.101557
thorax -8.94407 0.63913 -0.464834
lowerneck -8.36996 -4.89832 -9.63929
upperneck 13.6567 -6.24517 5.70676
head 5.99286 -3.17077 2.88153
rclavicle 1.06847e-015 -2.98177e-015
rhumerus -51.0693 16.4781 -97.4475
rradius 35.1404
rwrist 20.2618
rhand -4.54442 -50.5681
rfingers 7.12502
rthumb 21.2311 -439.425
lclavicle 1.06847e-015 -2.98177e-015
lhumerus -51.0594 -1.20245 89.0924
lradius 41.4688
lwrist -3.95983
lhand -3.50061 -31.1985
lfingers 7.12502
lthumb 22.2334 -2.45729
rfemur 4.43395 22.5149 30.9326
rtibia 14.2384
rfoot -15.1383 -29.0076
rtoes -2.89215
lfemur -3.0673 -22.2752 -26.2402
ltibia 24.2485
lfoot -20.9193 24.3208
ltoes -18.1958
447
root 9.77152 15.5697 0.359455 -381.115 -87.4273 19.7718
lowerback 8.16818 0.962061 0.104658
upperback -4.12215 1.28811 0.0518954
thorax -8.96069 0.612923 -0.205751
lowerneck -8.31376 -4.8279 -9.73482
upperneck 13.5396 -6.12281 5.63067
head 5.9377 -3.12058 2.885
rclavicle 2.22763e-014 5.56597e-015
rhumerus -51.5243 17.2308 -97.7836
rradius 35.5384
rwrist 19.5035
rhand -4.61582 -51.3095
rfingers 7.12502
rthumb 21.1625 -440.174
lclavicle 2.22763e-014 5.56597e-015
lhumerus -51.4532 -1.15803 89.6059
lradius 41.5138
lwrist -3.93797
lhand -2.95444 -31.5055
lfingers 7.12502
lthumb 22.7577 -2.8278
rfemur 4.51419 22.5192 31.0363
rtibia 14.2091
rfoot -15.1823 -28.9989
rtoes -2.41298
lfemur -3.03775 -22.1247 -26.1775
ltibia 24.2677
lfoot -20.6168 24.444
ltoes -20.1519
448
root 9.77443 15.5689 0.354916 -380.66 -87.379 19.3309
lowerback 8.13964 0.938127 0.00830135
upperback -4.1137 1.24973 0.115964
thorax -8.93845 0.602319 -0.077003
lowerneck -8.20106 -4.80624 -9.63536
upperneck 13.3032 -6.09024 5.52467
head 5.83524 -3.10539 2.841
rclavicle 1.21756e-014 1.39149e-015
rhumerus -51.9078 17.672 -98.0746
rradius 35.9279
rwrist 18.7599
rhand -4.56398 -51.0944
rfingers 7.12502
rthumb 21.2123 -439.954
lclavicle 1.21756e-014 1.39149e-015
lhumerus -51.814 -1.37962 90.0924
lradius 41.6003
lwrist -3.71952
lhand -2.28794 -31.8968
lfingers 7.12502
lthumb 23.3972 -3.29902
rfemur 4.53131 22.6164 31.061
rtibia 14.1379
rfoot -15.1715 -29.0604
rtoes -1.84387
lfemur -3.1102 -21.991 -26.1435
ltibia 24.3028
lfoot -20.4447 24.4893
ltoes -21.3525
